v 0 -5.9 0
v 0 -6.1 0
v 1000 -5.9 0
v 1000 -6.1 0
v 0 -2.9 0
v 0 -3.1 0
v 1000 -2.9 0
v 1000 -3.1 0
v 0 0.1 0
v 0 -0.1 0
v 1000 0.1 0
v 1000 -0.1 0
v 0 3.1 0
v 0 2.9 0
v 1000 3.1 0
v 1000 2.9 0
v 0 6.1 0
v 0 5.9 0
v 1000 6.1 0
v 1000 5.9 0
vn 0 -0 1
vn 0 -0 1
vn 0 -0 1
vn 0 -0 1
vn 0 -0 1
vn 0 -0 1
vn 0 -0 1
vn 0 -0 1
vn 0 -0 1
vn 0 -0 1
vn 0 -0 1
vn 0 -0 1
vn 0 -0 1
vn 0 -0 1
vn 0 -0 1
vn 0 -0 1
vn 0 -0 1
vn 0 -0 1
vn 0 -0 1
vn 0 -0 1
f 1//1 4//4 3//3
f 1//1 2//2 4//4
f 5//5 8//8 7//7
f 5//5 6//6 8//8
f 9//9 12//12 11//11
f 9//9 10//10 12//12
f 13//13 16//16 15//15
f 13//13 14//14 16//16
f 17//17 20//20 19//19
f 17//17 18//18 20//20

